<svg xmlns="http://www.w3.org/2000/svg" height="800" width="1200" style="text-align:center" aria-labelledby="bf-logo-footer" viewBox="-47.154 -12.9925 408.668 77.955"><path d="M31.11 26.73c2.45.19 4.58 1.23 6.4 3.11 1.81 1.89 2.72 4.48 2.72 7.78 0 4.05-1.34 7.28-4.03 9.69-2.69 2.4-6.55 3.61-11.6 3.61H0V3.54h24.54c4.34 0 7.81 1.18 10.43 3.54 2.62 2.36 3.92 5.49 3.92 9.4 0 2.97-.82 5.33-2.47 7.07-1.65 1.74-3.42 2.71-5.3 2.9v.28zm-19.44-3.61h10.18c1.74 0 3.13-.48 4.17-1.45s1.56-2.25 1.56-3.85c0-1.46-.51-2.64-1.52-3.54-1.01-.9-2.27-1.34-3.78-1.34H11.67zm10.89 18.39c1.84 0 3.26-.47 4.28-1.41 1.01-.94 1.52-2.24 1.52-3.89 0-1.56-.52-2.79-1.56-3.71-1.04-.92-2.38-1.38-4.03-1.38h-11.1v10.39zm58.18 9.4H69.43v-3.39c-2.83 2.97-6.46 4.45-10.89 4.45-4.15 0-7.48-1.36-10.01-4.07-2.52-2.71-3.78-6.28-3.78-10.71V15.42h11.24v19.37c0 2.07.57 3.76 1.7 5.06 1.13 1.3 2.59 1.94 4.38 1.94 2.31 0 4.11-.81 5.41-2.44 1.3-1.63 1.94-4.11 1.94-7.46V15.42h11.31v35.49zm34.84 0H85.63v-2.13L99.71 24.4H85.98v-8.98h29.43v2.13l-14.08 24.38h14.25zm34.84 0h-29.95v-2.13l14.08-24.38h-13.74v-8.98h29.43v2.13l-14.08 24.38h14.25v8.98zm16.82-27.15h20.46v10.18h-20.46v16.97h-11.67V3.54h34.01v10.25h-22.34zm103.35 12.3h-26.02c.67 4.4 3.96 6.86 8.94 6.86 3.92 0 7.79-1.54 10.69-3.77l4.34 7.52c-3.97 3.41-9.12 5.3-15.03 5.3-11.9 0-20.04-7.25-20.04-18.81 0-5.47 1.82-9.97 5.44-13.51 3.63-3.54 8.08-5.3 13.36-5.3 5.14 0 9.45 1.72 12.94 5.16 3.49 3.44 5.28 7.99 5.37 13.65v2.9zm-22.91-11.03c-1.41.99-2.38 2.36-2.9 4.1h14.64c-.52-1.84-1.41-3.23-2.69-4.17-1.27-.94-2.76-1.41-4.45-1.41-1.65 0-3.18.49-4.6 1.48zm-18.46 11.03H203.2c.67 4.4 3.96 6.86 8.94 6.86 3.92 0 7.79-1.54 10.69-3.77l4.34 7.52c-3.97 3.41-9.12 5.3-15.03 5.3-11.9 0-20.04-7.25-20.04-18.81 0-5.47 1.82-9.97 5.44-13.51 3.63-3.54 8.08-5.3 13.36-5.3 5.14 0 9.45 1.72 12.94 5.16 3.49 3.44 5.28 7.99 5.37 13.65v2.9zm-22.91-11.03c-1.41.99-2.38 2.36-2.9 4.1h14.64c-.52-1.84-1.41-3.23-2.69-4.17-1.27-.94-2.76-1.41-4.45-1.41-1.66 0-3.19.49-4.6 1.48zm108.05 25.88h-11.31v-2.83c-2.88 2.59-6.55 3.89-11.03 3.89-4.81 0-8.9-1.76-12.27-5.27-3.37-3.51-5.06-8.03-5.06-13.54 0-5.47 1.69-9.97 5.06-13.51 3.37-3.54 7.46-5.3 12.27-5.3 4.48 0 8.16 1.3 11.03 3.89V0h11.31zm-13.89-11.13c1.72-1.72 2.58-3.92 2.58-6.61 0-2.64-.86-4.83-2.58-6.58-1.72-1.74-3.76-2.62-6.12-2.62-2.5 0-4.55.86-6.15 2.58-1.6 1.72-2.4 3.92-2.4 6.61 0 2.73.8 4.95 2.4 6.65 1.6 1.7 3.65 2.55 6.15 2.55 2.36 0 4.4-.86 6.12-2.58z" fill="#e32" fill-opacity=".9961"/></svg>